<svg width="1439" height="862" viewBox="0 0 1439 862" fill="none" xmlns="http://www.w3.org/2000/svg">
<g clip-path="url(#clip0_83_811)">
<rect width="1439" height="861.972" fill="#0E0D0D"/>
<g opacity="0.23" filter="url(#filter0_f_83_811)">
<path d="M830.376 -619L1014.95 -498.459L321.571 563.229C321.571 563.229 469.376 194.407 430.333 181.105C391.29 167.802 137 442.687 137 442.687L830.376 -619Z" fill="url(#paint0_linear_83_811)"/>
</g>
<g opacity="0.23" filter="url(#filter1_f_83_811)">
<path d="M1241.44 -600.338L1437.3 -472.428L743.922 589.26C743.922 589.26 887.738 217.833 846.649 203.195C805.561 188.557 548.067 461.349 548.067 461.349L1241.44 -600.338Z" fill="url(#paint1_linear_83_811)"/>
</g>
<g opacity="0.1">
<mask id="path-3-inside-1_83_811" fill="white">
<path d="M-45 -79H209.917V175.917H-45V-79Z"/>
</mask>
<path d="M-45 -79H209.917V175.917H-45V-79Z" fill="url(#paint2_linear_83_811)"/>
<path d="M209.917 175.917V177.349H211.349V175.917H209.917ZM208.485 -79V175.917H211.349V-79H208.485ZM209.917 174.485H-45V177.349H209.917V174.485Z" fill="#52525B" mask="url(#path-3-inside-1_83_811)"/>
<mask id="path-5-inside-2_83_811" fill="white">
<path d="M209.917 -79H464.833V175.917H209.917V-79Z"/>
</mask>
<path d="M209.917 -79H464.833V175.917H209.917V-79Z" fill="url(#paint3_linear_83_811)"/>
<path d="M464.833 175.917V177.349H466.265V175.917H464.833ZM463.401 -79V175.917H466.265V-79H463.401ZM464.833 174.485H209.917V177.349H464.833V174.485Z" fill="#52525B" mask="url(#path-5-inside-2_83_811)"/>
<mask id="path-7-inside-3_83_811" fill="white">
<path d="M464.833 -79H719.75V175.917H464.833V-79Z"/>
</mask>
<path d="M464.833 -79H719.75V175.917H464.833V-79Z" fill="url(#paint4_linear_83_811)"/>
<path d="M719.75 175.917V177.349H721.182V175.917H719.75ZM718.318 -79V175.917H721.182V-79H718.318ZM719.75 174.485H464.833V177.349H719.75V174.485Z" fill="#52525B" mask="url(#path-7-inside-3_83_811)"/>
<mask id="path-9-inside-4_83_811" fill="white">
<path d="M719.75 -79H974.667V175.917H719.75V-79Z"/>
</mask>
<path d="M719.75 -79H974.667V175.917H719.75V-79Z" fill="url(#paint5_linear_83_811)"/>
<path d="M974.667 175.917V177.349H976.099V175.917H974.667ZM973.235 -79V175.917H976.099V-79H973.235ZM974.667 174.485H719.75V177.349H974.667V174.485Z" fill="#52525B" mask="url(#path-9-inside-4_83_811)"/>
<mask id="path-11-inside-5_83_811" fill="white">
<path d="M974.667 -79H1229.58V175.917H974.667V-79Z"/>
</mask>
<path d="M974.667 -79H1229.58V175.917H974.667V-79Z" fill="url(#paint6_linear_83_811)"/>
<path d="M1229.58 175.917V177.349H1231.02V175.917H1229.58ZM1228.15 -79V175.917H1231.02V-79H1228.15ZM1229.58 174.485H974.667V177.349H1229.58V174.485Z" fill="#52525B" mask="url(#path-11-inside-5_83_811)"/>
<mask id="path-13-inside-6_83_811" fill="white">
<path d="M1229.58 -79H1484.5V175.917H1229.58V-79Z"/>
</mask>
<path d="M1229.58 -79H1484.5V175.917H1229.58V-79Z" fill="url(#paint7_linear_83_811)"/>
<path d="M1484.5 175.917V177.349H1485.93V175.917H1484.5ZM1483.07 -79V175.917H1485.93V-79H1483.07ZM1484.5 174.485H1229.58V177.349H1484.5V174.485Z" fill="#52525B" mask="url(#path-13-inside-6_83_811)"/>
<mask id="path-15-inside-7_83_811" fill="white">
<path d="M-45 175.917H209.917V430.833H-45V175.917Z"/>
</mask>
<path d="M-45 175.917H209.917V430.833H-45V175.917Z" fill="url(#paint8_linear_83_811)"/>
<path d="M209.917 430.833V432.266H211.349V430.833H209.917ZM208.485 175.917V430.833H211.349V175.917H208.485ZM209.917 429.401H-45V432.266H209.917V429.401Z" fill="#52525B" mask="url(#path-15-inside-7_83_811)"/>
<mask id="path-17-inside-8_83_811" fill="white">
<path d="M209.917 175.917H464.833V430.833H209.917V175.917Z"/>
</mask>
<path d="M209.917 175.917H464.833V430.833H209.917V175.917Z" fill="url(#paint9_linear_83_811)"/>
<path d="M464.833 430.833V432.266H466.265V430.833H464.833ZM463.401 175.917V430.833H466.265V175.917H463.401ZM464.833 429.401H209.917V432.266H464.833V429.401Z" fill="#52525B" mask="url(#path-17-inside-8_83_811)"/>
<mask id="path-19-inside-9_83_811" fill="white">
<path d="M464.833 175.917H719.75V430.833H464.833V175.917Z"/>
</mask>
<path d="M464.833 175.917H719.75V430.833H464.833V175.917Z" fill="url(#paint10_linear_83_811)"/>
<path d="M719.75 430.833V432.266H721.182V430.833H719.75ZM718.318 175.917V430.833H721.182V175.917H718.318ZM719.75 429.401H464.833V432.266H719.75V429.401Z" fill="#52525B" mask="url(#path-19-inside-9_83_811)"/>
<mask id="path-21-inside-10_83_811" fill="white">
<path d="M719.75 175.917H974.667V430.833H719.75V175.917Z"/>
</mask>
<path d="M719.75 175.917H974.667V430.833H719.75V175.917Z" fill="url(#paint11_linear_83_811)"/>
<path d="M974.667 430.833V432.266H976.099V430.833H974.667ZM973.235 175.917V430.833H976.099V175.917H973.235ZM974.667 429.401H719.75V432.266H974.667V429.401Z" fill="#52525B" mask="url(#path-21-inside-10_83_811)"/>
<mask id="path-23-inside-11_83_811" fill="white">
<path d="M974.667 175.917H1229.58V430.833H974.667V175.917Z"/>
</mask>
<path d="M974.667 175.917H1229.58V430.833H974.667V175.917Z" fill="url(#paint12_linear_83_811)"/>
<path d="M1229.58 430.833V432.266H1231.02V430.833H1229.58ZM1228.15 175.917V430.833H1231.02V175.917H1228.15ZM1229.58 429.401H974.667V432.266H1229.58V429.401Z" fill="#52525B" mask="url(#path-23-inside-11_83_811)"/>
<mask id="path-25-inside-12_83_811" fill="white">
<path d="M1229.58 175.917H1484.5V430.833H1229.58V175.917Z"/>
</mask>
<path d="M1229.58 175.917H1484.5V430.833H1229.58V175.917Z" fill="url(#paint13_linear_83_811)"/>
<path d="M1484.5 430.833V432.266H1485.93V430.833H1484.5ZM1483.07 175.917V430.833H1485.93V175.917H1483.07ZM1484.5 429.401H1229.58V432.266H1484.5V429.401Z" fill="#52525B" mask="url(#path-25-inside-12_83_811)"/>
<mask id="path-27-inside-13_83_811" fill="white">
<path d="M-45 430.833H209.917V685.75H-45V430.833Z"/>
</mask>
<path d="M-45 430.833H209.917V685.75H-45V430.833Z" fill="url(#paint14_linear_83_811)"/>
<path d="M209.917 685.75V687.182H211.349V685.75H209.917ZM208.485 430.833V685.75H211.349V430.833H208.485ZM209.917 684.318H-45V687.182H209.917V684.318Z" fill="#52525B" mask="url(#path-27-inside-13_83_811)"/>
<mask id="path-29-inside-14_83_811" fill="white">
<path d="M209.917 430.833H464.833V685.75H209.917V430.833Z"/>
</mask>
<path d="M209.917 430.833H464.833V685.75H209.917V430.833Z" fill="url(#paint15_linear_83_811)"/>
<path d="M464.833 685.75V687.182H466.265V685.75H464.833ZM463.401 430.833V685.75H466.265V430.833H463.401ZM464.833 684.318H209.917V687.182H464.833V684.318Z" fill="#52525B" mask="url(#path-29-inside-14_83_811)"/>
<mask id="path-31-inside-15_83_811" fill="white">
<path d="M464.833 430.833H719.75V685.75H464.833V430.833Z"/>
</mask>
<path d="M464.833 430.833H719.75V685.75H464.833V430.833Z" fill="url(#paint16_linear_83_811)"/>
<path d="M719.75 685.75V687.182H721.182V685.75H719.75ZM718.318 430.833V685.75H721.182V430.833H718.318ZM719.75 684.318H464.833V687.182H719.75V684.318Z" fill="#52525B" mask="url(#path-31-inside-15_83_811)"/>
<mask id="path-33-inside-16_83_811" fill="white">
<path d="M719.75 430.833H974.667V685.75H719.75V430.833Z"/>
</mask>
<path d="M719.75 430.833H974.667V685.75H719.75V430.833Z" fill="url(#paint17_linear_83_811)"/>
<path d="M974.667 685.75V687.182H976.099V685.75H974.667ZM973.235 430.833V685.75H976.099V430.833H973.235ZM974.667 684.318H719.75V687.182H974.667V684.318Z" fill="#52525B" mask="url(#path-33-inside-16_83_811)"/>
<mask id="path-35-inside-17_83_811" fill="white">
<path d="M974.667 430.833H1229.58V685.75H974.667V430.833Z"/>
</mask>
<path d="M974.667 430.833H1229.58V685.75H974.667V430.833Z" fill="url(#paint18_linear_83_811)"/>
<path d="M1229.58 685.75V687.182H1231.02V685.75H1229.58ZM1228.15 430.833V685.75H1231.02V430.833H1228.15ZM1229.58 684.318H974.667V687.182H1229.58V684.318Z" fill="#52525B" mask="url(#path-35-inside-17_83_811)"/>
<mask id="path-37-inside-18_83_811" fill="white">
<path d="M1229.58 430.833H1484.5V685.75H1229.58V430.833Z"/>
</mask>
<path d="M1229.58 430.833H1484.5V685.75H1229.58V430.833Z" fill="url(#paint19_linear_83_811)"/>
<path d="M1484.5 685.75V687.182H1485.93V685.75H1484.5ZM1483.07 430.833V685.75H1485.93V430.833H1483.07ZM1484.5 684.318H1229.58V687.182H1484.5V684.318Z" fill="#52525B" mask="url(#path-37-inside-18_83_811)"/>
<mask id="path-39-inside-19_83_811" fill="white">
<path d="M-45 685.75H209.917V940.667H-45V685.75Z"/>
</mask>
<path d="M-45 685.75H209.917V940.667H-45V685.75Z" fill="url(#paint20_linear_83_811)"/>
<path d="M209.917 940.667V942.099H211.349V940.667H209.917ZM208.485 685.75V940.667H211.349V685.75H208.485ZM209.917 939.235H-45V942.099H209.917V939.235Z" fill="#52525B" mask="url(#path-39-inside-19_83_811)"/>
<mask id="path-41-inside-20_83_811" fill="white">
<path d="M209.917 685.75H464.833V940.667H209.917V685.75Z"/>
</mask>
<path d="M209.917 685.75H464.833V940.667H209.917V685.75Z" fill="url(#paint21_linear_83_811)"/>
<path d="M464.833 940.667V942.099H466.265V940.667H464.833ZM463.401 685.75V940.667H466.265V685.75H463.401ZM464.833 939.235H209.917V942.099H464.833V939.235Z" fill="#52525B" mask="url(#path-41-inside-20_83_811)"/>
<mask id="path-43-inside-21_83_811" fill="white">
<path d="M464.833 685.75H719.75V940.667H464.833V685.75Z"/>
</mask>
<path d="M464.833 685.75H719.75V940.667H464.833V685.75Z" fill="url(#paint22_linear_83_811)"/>
<path d="M719.75 940.667V942.099H721.182V940.667H719.75ZM718.318 685.75V940.667H721.182V685.75H718.318ZM719.75 939.235H464.833V942.099H719.75V939.235Z" fill="#52525B" mask="url(#path-43-inside-21_83_811)"/>
<mask id="path-45-inside-22_83_811" fill="white">
<path d="M719.75 685.75H974.667V940.667H719.75V685.75Z"/>
</mask>
<path d="M719.75 685.75H974.667V940.667H719.75V685.75Z" fill="url(#paint23_linear_83_811)"/>
<path d="M974.667 940.667V942.099H976.099V940.667H974.667ZM973.235 685.75V940.667H976.099V685.75H973.235ZM974.667 939.235H719.75V942.099H974.667V939.235Z" fill="#52525B" mask="url(#path-45-inside-22_83_811)"/>
<mask id="path-47-inside-23_83_811" fill="white">
<path d="M974.667 685.75H1229.58V940.667H974.667V685.75Z"/>
</mask>
<path d="M974.667 685.75H1229.58V940.667H974.667V685.75Z" fill="url(#paint24_linear_83_811)"/>
<path d="M1229.58 940.667V942.099H1231.02V940.667H1229.58ZM1228.15 685.75V940.667H1231.02V685.75H1228.15ZM1229.58 939.235H974.667V942.099H1229.58V939.235Z" fill="#52525B" mask="url(#path-47-inside-23_83_811)"/>
<mask id="path-49-inside-24_83_811" fill="white">
<path d="M1229.58 685.75H1484.5V940.667H1229.58V685.75Z"/>
</mask>
<path d="M1229.58 685.75H1484.5V940.667H1229.58V685.75Z" fill="url(#paint25_linear_83_811)"/>
<path d="M1484.5 940.667V942.099H1485.93V940.667H1484.5ZM1483.07 685.75V940.667H1485.93V685.75H1483.07ZM1484.5 939.235H1229.58V942.099H1484.5V939.235Z" fill="#52525B" mask="url(#path-49-inside-24_83_811)"/>
</g>
<g opacity="0.2">
<path d="M1185 219C1185 198.289 1172.41 181.5 1156.88 181.5C1172.41 181.5 1185 164.711 1185 144C1185 164.711 1197.59 181.5 1213.12 181.5C1197.59 181.5 1185 198.289 1185 219Z" fill="url(#paint26_linear_83_811)"/>
<path d="M1185 219C1185 239.711 1172.41 256.5 1156.88 256.5C1172.41 256.5 1185 273.289 1185 294C1185 273.289 1197.59 256.5 1213.12 256.5C1197.59 256.5 1185 239.711 1185 219Z" fill="url(#paint27_linear_83_811)"/>
<path d="M1185 219.001C1164.29 219.001 1147.5 231.593 1147.5 247.126C1147.5 231.593 1130.71 219.001 1110 219.001C1130.71 219.001 1147.5 206.409 1147.5 190.876C1147.5 206.409 1164.29 219.001 1185 219.001Z" fill="url(#paint28_linear_83_811)"/>
<path d="M1185 219.001C1205.71 219.001 1222.5 231.593 1222.5 247.126C1222.5 231.593 1239.29 219.001 1260 219.001C1239.29 219.001 1222.5 206.409 1222.5 190.876C1222.5 206.409 1205.71 219.001 1185 219.001Z" fill="url(#paint29_linear_83_811)"/>
</g>
<path opacity="0.2" d="M72.9 232C72.9 232 75.7692 266.799 76.3078 293.797C91.8501 279.152 112.508 262.354 112.508 262.354C112.508 262.354 95.7471 282.966 81.1134 298.503C105.272 299.092 135.8 301.889 135.8 301.889C135.8 301.889 105.212 304.691 81.042 305.277C95.6754 320.813 112.435 341.424 112.435 341.424C112.435 341.424 91.8405 324.678 76.3065 310.049C75.7644 337.036 72.9 371.778 72.9 371.778C72.9 371.778 70.0404 337.094 69.4949 310.116C53.9692 324.729 33.4376 341.424 33.4376 341.424C33.4376 341.424 50.1961 320.814 64.8292 305.279C40.6481 304.697 10 301.889 10 301.889C10 301.889 40.5878 299.087 64.7578 298.501C50.1244 282.965 33.3649 262.354 33.3649 262.354C33.3649 262.354 53.9595 279.1 69.4935 293.729C70.0356 266.741 72.9 232 72.9 232Z" fill="url(#paint30_radial_83_811)"/>
<g opacity="0.2">
<path fill-rule="evenodd" clip-rule="evenodd" d="M1364.27 502.372C1364.77 502.868 1364.77 503.673 1364.27 504.169L1350.8 517.644L1372.36 539.203L1385.83 525.729C1386.33 525.233 1387.13 525.233 1387.63 525.729C1388.12 526.225 1388.12 527.029 1387.63 527.525L1374.15 541L1387.63 554.475C1388.12 554.972 1388.12 555.776 1387.63 556.272C1387.13 556.768 1386.33 556.768 1385.83 556.272L1372.36 542.797L1350.8 564.356L1364.27 577.832C1364.77 578.328 1364.77 579.133 1364.27 579.629C1363.78 580.125 1362.97 580.125 1362.47 579.629L1349 566.153L1335.53 579.627C1335.03 580.124 1334.22 580.124 1333.73 579.627C1333.23 579.131 1333.23 578.327 1333.73 577.831L1347.2 564.356L1325.64 542.797L1312.17 556.271C1311.67 556.767 1310.87 556.767 1310.37 556.271C1309.88 555.775 1309.88 554.97 1310.37 554.474L1323.85 541L1310.37 527.527C1309.88 527.031 1309.88 526.226 1310.37 525.73C1310.87 525.234 1311.67 525.234 1312.17 525.73L1325.64 539.203L1347.2 517.644L1333.73 504.17C1333.23 503.674 1333.23 502.869 1333.73 502.373C1334.23 501.877 1335.03 501.877 1335.53 502.373L1349 515.847L1362.47 502.372C1362.97 501.876 1363.77 501.876 1364.27 502.372ZM1349 519.44L1327.44 541L1349 562.56L1370.56 541L1349 519.44Z" fill="url(#paint31_radial_83_811)"/>
<path d="M1349 520.2C1349 531.687 1339.69 541 1328.2 541C1339.69 541 1349 550.312 1349 561.8C1349 550.312 1358.31 541 1369.8 541C1358.31 541 1349 531.687 1349 520.2Z" fill="url(#paint32_radial_83_811)"/>
</g>
<g opacity="0.2">
<path d="M189.715 521.094C189.41 521.041 189.119 521.246 189.067 521.551C189.014 521.856 189.219 522.147 189.524 522.199L189.715 521.094ZM138.299 539.647L138.676 540.062L138.299 539.647ZM147.998 532.852C148.066 532.55 147.876 532.25 147.574 532.182L142.648 531.075C142.346 531.007 142.046 531.197 141.978 531.499C141.91 531.801 142.1 532.101 142.402 532.169L146.78 533.153L145.796 537.531C145.728 537.833 145.918 538.133 146.221 538.201C146.523 538.269 146.823 538.079 146.891 537.777L147.998 532.852ZM200.958 529.356C203.176 534.113 201.379 540.361 196.341 546.709C191.327 553.028 183.207 559.294 173.162 563.978L173.636 564.995C183.805 560.253 192.076 553.888 197.22 547.407C202.34 540.954 204.469 534.231 201.975 528.882L200.958 529.356ZM173.162 563.978C163.117 568.662 153.098 570.854 145.034 570.634C136.933 570.413 130.991 567.773 128.773 563.016L127.756 563.49C130.251 568.84 136.769 571.53 145.004 571.755C153.276 571.981 163.467 569.736 173.636 564.995L173.162 563.978ZM189.524 522.199C195.157 523.172 199.21 525.606 200.958 529.356L201.975 528.882C200.008 524.663 195.53 522.098 189.715 521.094L189.524 522.199ZM128.773 563.016C127.333 559.927 127.581 556.219 129.322 552.24C131.063 548.26 134.28 544.061 138.676 540.062L137.921 539.232C133.447 543.302 130.117 547.624 128.294 551.79C126.471 555.957 126.137 560.017 127.756 563.49L128.773 563.016ZM138.676 540.062C141.308 537.668 144.356 535.352 147.751 533.203L147.151 532.255C143.705 534.436 140.604 536.791 137.921 539.232L138.676 540.062Z" fill="url(#paint33_linear_83_811)"/>
<path d="M189.679 505.772C189.679 514.446 182.648 521.478 173.974 521.478C182.648 521.478 189.679 528.509 189.679 537.183C189.679 528.509 196.711 521.478 205.384 521.478C196.711 521.478 189.679 514.446 189.679 505.772Z" fill="url(#paint34_radial_83_811)"/>
</g>
<g opacity="0.2">
<path d="M288.752 267.686L282.4 256.682C277.072 247.454 280.233 235.654 289.462 230.326L295.815 241.33C301.143 250.558 297.981 262.358 288.752 267.686Z" fill="url(#paint35_linear_83_811)"/>
<path d="M290.3 192.484L296.653 203.488C301.981 212.716 298.819 224.516 289.591 229.844L283.238 218.84C277.91 209.612 281.072 197.812 290.3 192.484Z" fill="url(#paint36_linear_83_811)"/>
<path d="M251.925 229.311L262.929 222.958C272.157 217.63 283.957 220.792 289.285 230.02L278.282 236.373C269.053 241.701 257.253 238.54 251.925 229.311Z" fill="url(#paint37_linear_83_811)"/>
<path d="M327.127 230.859L316.123 237.212C306.895 242.54 295.095 239.378 289.767 230.15L300.771 223.797C309.999 218.469 321.799 221.631 327.127 230.859Z" fill="url(#paint38_linear_83_811)"/>
</g>
<rect width="1440" height="251" transform="translate(0 613)" fill="url(#paint39_linear_83_811)"/>
</g>
<defs>
<filter id="filter0_f_83_811" x="-3" y="-759" width="1157.95" height="1462.23" filterUnits="userSpaceOnUse" color-interpolation-filters="sRGB">
<feFlood flood-opacity="0" result="BackgroundImageFix"/>
<feBlend mode="normal" in="SourceGraphic" in2="BackgroundImageFix" result="shape"/>
<feGaussianBlur stdDeviation="70" result="effect1_foregroundBlur_83_811"/>
</filter>
<filter id="filter1_f_83_811" x="408.066" y="-740.338" width="1169.23" height="1469.6" filterUnits="userSpaceOnUse" color-interpolation-filters="sRGB">
<feFlood flood-opacity="0" result="BackgroundImageFix"/>
<feBlend mode="normal" in="SourceGraphic" in2="BackgroundImageFix" result="shape"/>
<feGaussianBlur stdDeviation="70" result="effect1_foregroundBlur_83_811"/>
</filter>
<linearGradient id="paint0_linear_83_811" x1="922.662" y1="-558.729" x2="93.2731" y2="711.219" gradientUnits="userSpaceOnUse">
<stop stop-color="white"/>
<stop offset="1" stop-color="white" stop-opacity="0"/>
</linearGradient>
<linearGradient id="paint1_linear_83_811" x1="1339.37" y1="-536.383" x2="509.982" y2="733.565" gradientUnits="userSpaceOnUse">
<stop stop-color="white"/>
<stop offset="1" stop-color="white" stop-opacity="0"/>
</linearGradient>
<linearGradient id="paint2_linear_83_811" x1="82.4583" y1="-79" x2="82.4583" y2="175.917" gradientUnits="userSpaceOnUse">
<stop/>
<stop offset="1" stop-color="#95959C" stop-opacity="0"/>
</linearGradient>
<linearGradient id="paint3_linear_83_811" x1="337.375" y1="-79" x2="337.375" y2="175.917" gradientUnits="userSpaceOnUse">
<stop stop-color="#252525"/>
<stop offset="1" stop-color="#616169" stop-opacity="0"/>
</linearGradient>
<linearGradient id="paint4_linear_83_811" x1="592.291" y1="-79" x2="592.291" y2="175.917" gradientUnits="userSpaceOnUse">
<stop/>
<stop offset="1" stop-color="#95959C" stop-opacity="0"/>
</linearGradient>
<linearGradient id="paint5_linear_83_811" x1="847.208" y1="-79" x2="847.208" y2="175.917" gradientUnits="userSpaceOnUse">
<stop stop-color="#252525"/>
<stop offset="1" stop-color="#616169" stop-opacity="0"/>
</linearGradient>
<linearGradient id="paint6_linear_83_811" x1="1102.12" y1="-79" x2="1102.12" y2="175.917" gradientUnits="userSpaceOnUse">
<stop/>
<stop offset="1" stop-color="#95959C" stop-opacity="0"/>
</linearGradient>
<linearGradient id="paint7_linear_83_811" x1="1357.04" y1="-79" x2="1357.04" y2="175.917" gradientUnits="userSpaceOnUse">
<stop stop-color="#252525"/>
<stop offset="1" stop-color="#616169" stop-opacity="0"/>
</linearGradient>
<linearGradient id="paint8_linear_83_811" x1="82.4583" y1="175.917" x2="82.4583" y2="430.833" gradientUnits="userSpaceOnUse">
<stop stop-color="#252525"/>
<stop offset="1" stop-color="#616169" stop-opacity="0"/>
</linearGradient>
<linearGradient id="paint9_linear_83_811" x1="337.375" y1="175.917" x2="337.375" y2="430.833" gradientUnits="userSpaceOnUse">
<stop/>
<stop offset="1" stop-color="#95959C" stop-opacity="0"/>
</linearGradient>
<linearGradient id="paint10_linear_83_811" x1="592.292" y1="175.917" x2="592.292" y2="430.833" gradientUnits="userSpaceOnUse">
<stop stop-color="#252525"/>
<stop offset="1" stop-color="#616169" stop-opacity="0"/>
</linearGradient>
<linearGradient id="paint11_linear_83_811" x1="847.208" y1="175.917" x2="847.208" y2="430.833" gradientUnits="userSpaceOnUse">
<stop/>
<stop offset="1" stop-color="#95959C" stop-opacity="0"/>
</linearGradient>
<linearGradient id="paint12_linear_83_811" x1="1102.12" y1="175.917" x2="1102.12" y2="430.833" gradientUnits="userSpaceOnUse">
<stop stop-color="#252525"/>
<stop offset="1" stop-color="#616169" stop-opacity="0"/>
</linearGradient>
<linearGradient id="paint13_linear_83_811" x1="1357.04" y1="175.917" x2="1357.04" y2="430.833" gradientUnits="userSpaceOnUse">
<stop/>
<stop offset="1" stop-color="#95959C" stop-opacity="0"/>
</linearGradient>
<linearGradient id="paint14_linear_83_811" x1="82.4583" y1="430.833" x2="82.4583" y2="685.75" gradientUnits="userSpaceOnUse">
<stop/>
<stop offset="1" stop-color="#95959C" stop-opacity="0"/>
</linearGradient>
<linearGradient id="paint15_linear_83_811" x1="337.375" y1="430.833" x2="337.375" y2="685.75" gradientUnits="userSpaceOnUse">
<stop stop-color="#252525"/>
<stop offset="1" stop-color="#616169" stop-opacity="0"/>
</linearGradient>
<linearGradient id="paint16_linear_83_811" x1="592.292" y1="430.833" x2="592.292" y2="685.75" gradientUnits="userSpaceOnUse">
<stop/>
<stop offset="1" stop-color="#95959C" stop-opacity="0"/>
</linearGradient>
<linearGradient id="paint17_linear_83_811" x1="847.208" y1="430.833" x2="847.208" y2="685.75" gradientUnits="userSpaceOnUse">
<stop stop-color="#252525"/>
<stop offset="1" stop-color="#616169" stop-opacity="0"/>
</linearGradient>
<linearGradient id="paint18_linear_83_811" x1="1102.12" y1="430.833" x2="1102.12" y2="685.75" gradientUnits="userSpaceOnUse">
<stop/>
<stop offset="1" stop-color="#95959C" stop-opacity="0"/>
</linearGradient>
<linearGradient id="paint19_linear_83_811" x1="1357.04" y1="430.833" x2="1357.04" y2="685.75" gradientUnits="userSpaceOnUse">
<stop stop-color="#252525"/>
<stop offset="1" stop-color="#616169" stop-opacity="0"/>
</linearGradient>
<linearGradient id="paint20_linear_83_811" x1="82.4583" y1="685.75" x2="82.4583" y2="940.667" gradientUnits="userSpaceOnUse">
<stop stop-color="#252525"/>
<stop offset="1" stop-color="#616169" stop-opacity="0"/>
</linearGradient>
<linearGradient id="paint21_linear_83_811" x1="337.375" y1="685.75" x2="337.375" y2="940.667" gradientUnits="userSpaceOnUse">
<stop/>
<stop offset="1" stop-color="#95959C" stop-opacity="0"/>
</linearGradient>
<linearGradient id="paint22_linear_83_811" x1="592.292" y1="685.75" x2="592.292" y2="940.667" gradientUnits="userSpaceOnUse">
<stop stop-color="#252525"/>
<stop offset="1" stop-color="#616169" stop-opacity="0"/>
</linearGradient>
<linearGradient id="paint23_linear_83_811" x1="847.208" y1="685.75" x2="847.208" y2="940.667" gradientUnits="userSpaceOnUse">
<stop/>
<stop offset="1" stop-color="#95959C" stop-opacity="0"/>
</linearGradient>
<linearGradient id="paint24_linear_83_811" x1="1102.12" y1="685.75" x2="1102.12" y2="940.667" gradientUnits="userSpaceOnUse">
<stop stop-color="#252525"/>
<stop offset="1" stop-color="#616169" stop-opacity="0"/>
</linearGradient>
<linearGradient id="paint25_linear_83_811" x1="1357.04" y1="685.75" x2="1357.04" y2="940.667" gradientUnits="userSpaceOnUse">
<stop/>
<stop offset="1" stop-color="#95959C" stop-opacity="0"/>
</linearGradient>
<linearGradient id="paint26_linear_83_811" x1="1185" y1="149.859" x2="1185" y2="227.496" gradientUnits="userSpaceOnUse">
<stop stop-color="white"/>
<stop offset="1" stop-opacity="0.16"/>
</linearGradient>
<linearGradient id="paint27_linear_83_811" x1="1185" y1="288.141" x2="1185" y2="210.504" gradientUnits="userSpaceOnUse">
<stop stop-color="white"/>
<stop offset="1" stop-opacity="0.16"/>
</linearGradient>
<linearGradient id="paint28_linear_83_811" x1="1115.86" y1="219.001" x2="1193.5" y2="219.001" gradientUnits="userSpaceOnUse">
<stop stop-color="white"/>
<stop offset="1" stop-opacity="0.16"/>
</linearGradient>
<linearGradient id="paint29_linear_83_811" x1="1254.14" y1="219.001" x2="1176.5" y2="219.001" gradientUnits="userSpaceOnUse">
<stop stop-color="white"/>
<stop offset="1" stop-opacity="0.16"/>
</linearGradient>
<radialGradient id="paint30_radial_83_811" cx="0" cy="0" r="1" gradientUnits="userSpaceOnUse" gradientTransform="translate(72.9 299.268) rotate(57.4396) scale(86.0318 66.5591)">
<stop stop-color="white"/>
<stop offset="1" stop-color="#3A3A3A" stop-opacity="0.73"/>
</radialGradient>
<radialGradient id="paint31_radial_83_811" cx="0" cy="0" r="1" gradientUnits="userSpaceOnUse" gradientTransform="translate(1349 541) rotate(90) scale(43.1945 43.194)">
<stop stop-color="white"/>
<stop offset="1" stop-color="white" stop-opacity="0"/>
</radialGradient>
<radialGradient id="paint32_radial_83_811" cx="0" cy="0" r="1" gradientUnits="userSpaceOnUse" gradientTransform="translate(1349 541) rotate(90) scale(24.0499)">
<stop stop-color="white"/>
<stop offset="1" stop-color="white" stop-opacity="0"/>
</radialGradient>
<linearGradient id="paint33_linear_83_811" x1="135.144" y1="536.622" x2="191.795" y2="576.445" gradientUnits="userSpaceOnUse">
<stop stop-color="white" stop-opacity="0.4"/>
<stop offset="0.21784" stop-color="white"/>
<stop offset="0.578937" stop-color="white" stop-opacity="0.44"/>
<stop offset="1" stop-color="white" stop-opacity="0"/>
</linearGradient>
<radialGradient id="paint34_radial_83_811" cx="0" cy="0" r="1" gradientUnits="userSpaceOnUse" gradientTransform="translate(189.679 521.478) rotate(90) scale(18.159)">
<stop stop-color="white"/>
<stop offset="1" stop-color="#353535"/>
</radialGradient>
<linearGradient id="paint35_linear_83_811" x1="289.143" y1="263.657" x2="289.72" y2="229.362" gradientUnits="userSpaceOnUse">
<stop stop-color="white"/>
<stop offset="1" stop-color="#070707"/>
</linearGradient>
<linearGradient id="paint36_linear_83_811" x1="289.909" y1="196.513" x2="289.332" y2="230.808" gradientUnits="userSpaceOnUse">
<stop stop-color="white"/>
<stop offset="1" stop-color="#070707"/>
</linearGradient>
<linearGradient id="paint37_linear_83_811" x1="255.955" y1="229.702" x2="290.249" y2="230.279" gradientUnits="userSpaceOnUse">
<stop stop-color="white"/>
<stop offset="1" stop-color="#070707"/>
</linearGradient>
<linearGradient id="paint38_linear_83_811" x1="323.098" y1="230.468" x2="288.803" y2="229.891" gradientUnits="userSpaceOnUse">
<stop stop-color="white"/>
<stop offset="1" stop-color="#070707"/>
</linearGradient>
<linearGradient id="paint39_linear_83_811" x1="720" y1="0" x2="720" y2="251" gradientUnits="userSpaceOnUse">
<stop stop-color="#0F0E0E" stop-opacity="0"/>
<stop offset="1" stop-color="#0F0E0E"/>
</linearGradient>
<clipPath id="clip0_83_811">
<rect width="1439" height="861.972" fill="white"/>
</clipPath>
</defs>
</svg>
