<svg width="117" height="43" viewBox="0 0 117 43" fill="none" xmlns="http://www.w3.org/2000/svg">
<g clip-path="url(#clip0_61_203)">
<g clip-path="url(#clip1_61_203)">
<g clip-path="url(#clip2_61_203)">
<g clip-path="url(#clip3_61_203)">
<g clip-path="url(#clip4_61_203)">
<g clip-path="url(#clip5_61_203)">
<g clip-path="url(#clip6_61_203)">
<g clip-path="url(#clip7_61_203)">
<path d="M35.9838 13.6549C35.8068 13.1239 35.5118 12.6135 35.0987 12.1237C34.6857 11.6399 34.2727 11.28 33.8596 11.0439L35.0987 9.18527C36.7214 10.2769 37.872 11.8848 38.5506 14.009L43.2415 28.2145L49.2158 9.93759H51.694L57.6683 28.2145L63.6427 9.93759H66.1209L58.9075 32.0204H56.4292L50.4549 13.7434L44.4806 32.0204H41.9581L35.9838 13.6549ZM70.5905 32.0647V9.89334H73.2458V32.0647H70.5905ZM71.8297 7.06107C71.3281 7.06107 70.8915 6.87521 70.5197 6.50347C70.1539 6.13764 69.971 5.70394 69.971 5.2024C69.971 4.67135 70.1539 4.21996 70.5197 3.84822C70.8915 3.48239 71.3281 3.29947 71.8297 3.29947C72.3607 3.29947 72.8092 3.48239 73.175 3.84822C73.5467 4.21996 73.7326 4.67135 73.7326 5.2024C73.7326 5.70394 73.5467 6.13764 73.175 6.50347C72.8092 6.87521 72.3607 7.06107 71.8297 7.06107ZM86.4335 32.5957C83.4538 32.5957 80.6805 31.4451 78.1138 29.1439L79.5741 27.3737C80.6952 28.2883 81.8075 28.9875 82.9109 29.4714C84.0202 29.9611 85.2092 30.206 86.4778 30.206C88.0709 30.206 89.3159 29.8283 90.2128 29.0731C91.1156 28.3237 91.567 27.3 91.567 26.0018C91.567 25.1758 91.3664 24.5031 90.9651 23.9839C90.5639 23.4705 90.0329 23.0516 89.372 22.727C88.7111 22.4025 87.5251 21.8862 85.814 21.1781C84.2503 20.5291 83.0407 19.9685 82.1851 19.4965C81.3296 19.0244 80.651 18.4403 80.1494 17.744C79.6479 17.0537 79.3971 16.1774 79.3971 15.1153C79.3971 13.3747 80.0167 11.9792 81.2558 10.9289C82.4949 9.88449 84.1471 9.36229 86.2123 9.36229C87.2744 9.36229 88.3276 9.5098 89.372 9.80483C90.4223 10.0999 91.3162 10.5276 92.0538 11.0882L90.9475 12.9911C89.5903 12.165 88.0562 11.752 86.345 11.752C84.9879 11.752 83.9405 12.0175 83.203 12.5486C82.4654 13.0796 82.0966 13.832 82.0966 14.8055C82.0966 15.5431 82.2943 16.1479 82.6896 16.62C83.0909 17.092 83.6072 17.4814 84.2385 17.7883C84.8758 18.101 85.932 18.5524 87.4071 19.1424C89.0829 19.821 90.3869 20.4317 91.3192 20.9746C92.2515 21.5233 92.9743 22.1871 93.4876 22.966C94.0069 23.7508 94.2665 24.7185 94.2665 25.8691C94.2665 27.9048 93.5496 29.5333 92.1158 30.7547C90.6878 31.982 88.7938 32.5957 86.4335 32.5957ZM99.1256 -0.0638428H101.781V13.1681C102.695 11.8995 103.758 10.9702 104.967 10.3801C106.177 9.79008 107.578 9.49505 109.171 9.49505C111.561 9.49505 113.355 10.1205 114.553 11.3714C115.745 12.6282 116.34 14.4073 116.34 16.7085V32.0647H113.685V17.1953C113.685 15.5726 113.287 14.2951 112.49 13.3629C111.694 12.4365 110.499 11.9733 108.906 11.9733C107.49 11.9733 106.221 12.3421 105.1 13.0796C103.979 13.8172 102.872 14.9236 101.781 16.3987V32.0647H99.1256V-0.0638428Z" fill="#6D7178"/>
</g>
</g>
<g clip-path="url(#clip8_61_203)">
<g clip-path="url(#clip9_61_203)">
<path d="M35.5354 42.2684V42.5469C35.3999 42.6386 35.2143 42.6845 34.9784 42.6845C34.6464 42.6845 34.3767 42.5823 34.1692 42.3778C33.9617 42.1738 33.8579 41.896 33.8579 41.5443C33.8579 41.2123 33.9634 40.9419 34.1744 40.7331C34.385 40.5248 34.6497 40.4206 34.9686 40.4206C35.1979 40.4206 35.3846 40.4599 35.5288 40.5385V40.8105C35.4327 40.7602 35.3464 40.7242 35.27 40.7023C35.1935 40.6805 35.0931 40.6696 34.9686 40.6696C34.7305 40.6696 34.5324 40.7504 34.3742 40.912C34.2157 41.0736 34.1364 41.2844 34.1364 41.5443C34.1364 41.8152 34.215 42.0314 34.3723 42.193C34.5295 42.3547 34.7381 42.4355 34.998 42.4355C35.2077 42.4355 35.3868 42.3798 35.5354 42.2684ZM36.4199 42.4584C36.5379 42.4584 36.6318 42.425 36.7017 42.3582C36.7716 42.2918 36.8065 42.2072 36.8065 42.1046V41.8916H36.5182C36.3784 41.8916 36.2736 41.9189 36.2037 41.9735C36.1338 42.0281 36.0989 42.0969 36.0989 42.1799C36.0989 42.2629 36.1262 42.33 36.1808 42.3811C36.2354 42.4326 36.3151 42.4584 36.4199 42.4584ZM36.8098 42.6583V42.4617C36.7246 42.6037 36.5696 42.6746 36.3446 42.6746C36.1895 42.6746 36.0644 42.6288 35.9691 42.537C35.8743 42.4453 35.8269 42.3295 35.8269 42.1898C35.8269 42.0303 35.8874 41.9063 36.0084 41.8176C36.1299 41.7293 36.2954 41.6852 36.5051 41.6852H36.8065V41.6C36.8065 41.469 36.7771 41.37 36.7181 41.3032C36.6591 41.2368 36.5597 41.2036 36.4199 41.2036C36.243 41.2036 36.0858 41.2506 35.9482 41.3445V41.0857C36.0727 41.0092 36.2365 40.971 36.4396 40.971C36.8568 40.971 37.0654 41.1829 37.0654 41.6066V42.6583H36.8098ZM38.3562 42.37V42.6157C38.2841 42.655 38.2033 42.6746 38.1138 42.6746C37.7861 42.6746 37.6223 42.5076 37.6223 42.1734V41.2069H37.357V40.9972H37.6223V40.5844H37.8812V40.9972H38.3398V41.2069H37.8812V42.1799C37.8812 42.3568 37.9642 42.4453 38.1302 42.4453C38.2153 42.4453 38.2907 42.4202 38.3562 42.37ZM39.8757 42.3536V42.5993C39.7709 42.6626 39.642 42.6943 39.4891 42.6943C39.227 42.6943 39.0191 42.6106 38.8653 42.4433C38.7111 42.2765 38.634 42.0729 38.634 41.8326C38.634 41.5968 38.7111 41.3936 38.8653 41.2233C39.0191 41.0529 39.2292 40.9677 39.4957 40.9677C39.6377 40.9677 39.7644 40.9983 39.8757 41.0594V41.3052C39.7753 41.2375 39.6573 41.2036 39.5219 41.2036C39.3341 41.2036 39.184 41.2641 39.0718 41.3851C38.959 41.5065 38.9027 41.6568 38.9027 41.8359C38.9049 42.015 38.9595 42.164 39.0665 42.2828C39.1735 42.4021 39.3253 42.4617 39.5219 42.4617C39.6486 42.4617 39.7665 42.4257 39.8757 42.3536ZM41.586 41.5214V42.6583H41.3271V41.5837C41.3271 41.4635 41.2961 41.3707 41.2341 41.3052C41.1716 41.2396 41.0901 41.2069 40.9897 41.2069C40.8674 41.2069 40.7603 41.2538 40.6686 41.3478C40.5769 41.4417 40.531 41.576 40.531 41.7507V42.6583H40.2755V40.3419H40.531V41.2855C40.6293 41.078 40.804 40.9743 41.0552 40.9743C41.2146 40.9743 41.3431 41.0234 41.4405 41.1217C41.5375 41.22 41.586 41.3532 41.586 41.5214ZM43.6172 42.37V42.6157C43.5452 42.655 43.4643 42.6746 43.3748 42.6746C43.0472 42.6746 42.8834 42.5076 42.8834 42.1734V41.2069H42.618V40.9972H42.8834V40.5844H43.1422V40.9972H43.6009V41.2069H43.1422V42.1799C43.1422 42.3568 43.2252 42.4453 43.3912 42.4453C43.4764 42.4453 43.5517 42.4202 43.6172 42.37ZM45.3039 41.5214V42.6583H45.045V41.5837C45.045 41.4635 45.014 41.3707 44.952 41.3052C44.8895 41.2396 44.8081 41.2069 44.7076 41.2069C44.5853 41.2069 44.4782 41.2538 44.3865 41.3478C44.2948 41.4417 44.2489 41.576 44.2489 41.7507V42.6583H43.9934V40.3419H44.2489V41.2855C44.3472 41.078 44.5219 40.9743 44.7731 40.9743C44.9325 40.9743 45.061 41.0234 45.1584 41.1217C45.2554 41.22 45.3039 41.3532 45.3039 41.5214ZM46.9748 42.3306V42.5731C46.8459 42.6408 46.6886 42.6746 46.503 42.6746C46.2518 42.6746 46.0493 42.5975 45.8956 42.4433C45.7413 42.2896 45.6642 42.086 45.6642 41.8326C45.6642 41.5684 45.733 41.3598 45.8707 41.2069C46.0083 41.054 46.1852 40.9775 46.4014 40.9775C46.6089 40.9775 46.7738 41.0442 46.8961 41.1774C47.0184 41.3106 47.0796 41.4996 47.0796 41.7442C47.0796 41.8141 47.0741 41.8785 47.0632 41.9375H45.9296C45.9493 42.1013 46.0115 42.2269 46.1164 42.3143C46.2212 42.4016 46.3588 42.4453 46.5292 42.4453C46.7148 42.4453 46.8634 42.4071 46.9748 42.3306ZM46.4014 41.2036C46.2769 41.2036 46.171 41.2484 46.0836 41.3379C45.9962 41.4275 45.9449 41.5553 45.9296 41.7213H46.8208V41.6557C46.8208 41.5181 46.7836 41.4083 46.7094 41.3261C46.6351 41.2444 46.5325 41.2036 46.4014 41.2036ZM49.0322 42.6583H48.2263V40.4501H48.8914C49.1185 40.4501 49.3002 40.5025 49.4365 40.6073C49.5733 40.7122 49.6416 40.853 49.6416 41.03C49.6416 41.1566 49.606 41.2663 49.5348 41.3589C49.4641 41.4519 49.373 41.5105 49.2616 41.5345C49.3839 41.5542 49.4881 41.6092 49.5741 41.6996C49.6606 41.7905 49.7039 41.9135 49.7039 42.0685C49.7039 42.2455 49.6453 42.3879 49.5283 42.4958C49.4116 42.6041 49.2463 42.6583 49.0322 42.6583ZM48.8914 40.6761H48.4917V41.4297H48.8455C49.0224 41.4297 49.1535 41.3925 49.2386 41.3183C49.3238 41.244 49.3664 41.1479 49.3664 41.03C49.3664 40.9273 49.3265 40.8426 49.2465 40.7757C49.167 40.7093 49.0486 40.6761 48.8914 40.6761ZM48.9438 41.6557H48.4917V42.4322H48.9929C49.1327 42.4322 49.2402 42.3999 49.3153 42.3352C49.3909 42.271 49.4287 42.1767 49.4287 42.0522C49.4287 41.9277 49.3865 41.8305 49.3022 41.7606C49.2183 41.6907 49.0989 41.6557 48.9438 41.6557ZM51.2955 42.3306V42.5731C51.1666 42.6408 51.0094 42.6746 50.8237 42.6746C50.5725 42.6746 50.3701 42.5975 50.2163 42.4433C50.0621 42.2896 49.985 42.086 49.985 41.8326C49.985 41.5684 50.0538 41.3598 50.1914 41.2069C50.329 41.054 50.5059 40.9775 50.7221 40.9775C50.9296 40.9775 51.0945 41.0442 51.2169 41.1774C51.3392 41.3106 51.4003 41.4996 51.4003 41.7442C51.4003 41.8141 51.3949 41.8785 51.3839 41.9375H50.2504C50.27 42.1013 50.3323 42.2269 50.4371 42.3143C50.5419 42.4016 50.6795 42.4453 50.8499 42.4453C51.0356 42.4453 51.1841 42.4071 51.2955 42.3306ZM50.7221 41.2036C50.5976 41.2036 50.4917 41.2484 50.4043 41.3379C50.317 41.4275 50.2656 41.5553 50.2504 41.7213H51.1415V41.6557C51.1415 41.5181 51.1044 41.4083 51.0301 41.3261C50.9558 41.2444 50.8532 41.2036 50.7221 41.2036ZM52.7927 42.216C52.7927 42.3579 52.7432 42.4704 52.644 42.5534C52.5444 42.6364 52.4083 42.6779 52.2358 42.6779C52.0348 42.6779 51.8721 42.6441 51.7476 42.5764V42.3241C51.8939 42.4115 52.0512 42.4551 52.2194 42.4551C52.3199 42.4551 52.3963 42.4355 52.4487 42.3962C52.5012 42.3568 52.5274 42.3033 52.5274 42.2356C52.5274 42.157 52.4985 42.0958 52.4409 42.0522C52.3828 42.0085 52.286 41.9593 52.1506 41.9047C52.0261 41.8567 51.9263 41.7966 51.8511 41.7245C51.7756 41.6525 51.7378 41.5553 51.7378 41.4329C51.7378 41.2953 51.7898 41.1855 51.8937 41.1034C51.9973 41.0217 52.1266 40.9808 52.2816 40.9808C52.4542 40.9808 52.5929 41.0048 52.6977 41.0529V41.2986C52.5973 41.2375 52.4597 41.2069 52.2849 41.2069C52.1975 41.2069 52.1283 41.227 52.0772 41.2672C52.0257 41.3078 51.9999 41.3598 51.9999 41.4231C51.9999 41.4624 52.0075 41.4967 52.0228 41.526C52.0381 41.5557 52.0682 41.5847 52.1132 41.6131C52.1578 41.6415 52.1906 41.6605 52.2115 41.6701C52.2321 41.6802 52.2773 41.7005 52.3472 41.7311C52.487 41.7879 52.5962 41.8523 52.6748 41.9244C52.7534 41.9965 52.7927 42.0937 52.7927 42.216ZM53.9755 42.37V42.6157C53.9034 42.655 53.8226 42.6746 53.733 42.6746C53.4054 42.6746 53.2416 42.5076 53.2416 42.1734V41.2069H52.9762V40.9972H53.2416V40.5844H53.5004V40.9972H53.9591V41.2069H53.5004V42.1799C53.5004 42.3568 53.5834 42.4453 53.7494 42.4453C53.8346 42.4453 53.9099 42.4202 53.9755 42.37ZM55.7735 42.6583H55.1051V40.4501H55.7604C56.0858 40.4501 56.3529 40.551 56.5618 40.7528C56.7701 40.955 56.8743 41.2167 56.8743 41.5378C56.8743 41.8567 56.7778 42.1231 56.5847 42.3372C56.3912 42.5512 56.1208 42.6583 55.7735 42.6583ZM55.7571 40.686H55.3738V42.4257H55.7702C56.0432 42.4257 56.2496 42.3409 56.3894 42.1714C56.5292 42.0024 56.5991 41.7911 56.5991 41.5378C56.5991 41.2975 56.5211 41.0955 56.3652 40.9317C56.2088 40.7679 56.0061 40.686 55.7571 40.686ZM58.4698 42.3306V42.5731C58.341 42.6408 58.1837 42.6746 57.9981 42.6746C57.7469 42.6746 57.5444 42.5975 57.3906 42.4433C57.2364 42.2896 57.1593 42.086 57.1593 41.8326C57.1593 41.5684 57.2281 41.3598 57.3657 41.2069C57.5033 41.054 57.6803 40.9775 57.8965 40.9775C58.104 40.9775 58.2689 41.0442 58.3912 41.1774C58.5135 41.3106 58.5747 41.4996 58.5747 41.7442C58.5747 41.8141 58.5692 41.8785 58.5583 41.9375H57.4247C57.4444 42.1013 57.5066 42.2269 57.6115 42.3143C57.7163 42.4016 57.8539 42.4453 58.0243 42.4453C58.2099 42.4453 58.3585 42.4071 58.4698 42.3306ZM57.8965 41.2036C57.772 41.2036 57.6661 41.2484 57.5787 41.3379C57.4913 41.4275 57.44 41.5553 57.4247 41.7213H58.3159V41.6557C58.3159 41.5181 58.2787 41.4083 58.2045 41.3261C58.1302 41.2444 58.0275 41.2036 57.8965 41.2036ZM59.4757 42.4584C59.5936 42.4584 59.6875 42.425 59.7574 42.3582C59.8273 42.2918 59.8623 42.2072 59.8623 42.1046V41.8916H59.5739C59.4342 41.8916 59.3293 41.9189 59.2594 41.9735C59.1895 42.0281 59.1546 42.0969 59.1546 42.1799C59.1546 42.2629 59.1819 42.33 59.2365 42.3811C59.2911 42.4326 59.3708 42.4584 59.4757 42.4584ZM59.8655 42.6583V42.4617C59.7803 42.6037 59.6253 42.6746 59.4003 42.6746C59.2452 42.6746 59.1201 42.6288 59.0248 42.537C58.93 42.4453 58.8827 42.3295 58.8827 42.1898C58.8827 42.0303 58.9432 41.9063 59.0642 41.8176C59.1856 41.7293 59.3512 41.6852 59.5608 41.6852H59.8623V41.6C59.8623 41.469 59.8328 41.37 59.7738 41.3032C59.7148 41.2368 59.6154 41.2036 59.4757 41.2036C59.2987 41.2036 59.1415 41.2506 59.0039 41.3445V41.0857C59.1284 41.0092 59.2922 40.971 59.4953 40.971C59.9125 40.971 60.1211 41.1829 60.1211 41.6066V42.6583H59.8655ZM60.8517 40.3419V42.6583H60.5929V40.3419H60.8517ZM62.3417 42.216C62.3417 42.3579 62.2921 42.4704 62.193 42.5534C62.0934 42.6364 61.9573 42.6779 61.7848 42.6779C61.5838 42.6779 61.4211 42.6441 61.2966 42.5764V42.3241C61.4429 42.4115 61.6002 42.4551 61.7684 42.4551C61.8689 42.4551 61.9453 42.4355 61.9977 42.3962C62.0501 42.3568 62.0764 42.3033 62.0764 42.2356C62.0764 42.157 62.0475 42.0958 61.9899 42.0522C61.9318 42.0085 61.835 41.9593 61.6996 41.9047C61.5751 41.8567 61.4753 41.7966 61.4001 41.7245C61.3246 41.6525 61.2868 41.5553 61.2868 41.4329C61.2868 41.2953 61.3388 41.1855 61.4427 41.1034C61.5463 41.0217 61.6756 40.9808 61.8306 40.9808C62.0032 40.9808 62.1419 41.0048 62.2467 41.0529V41.2986C62.1462 41.2375 62.0086 41.2069 61.8339 41.2069C61.7465 41.2069 61.6773 41.227 61.6262 41.2672C61.5746 41.3078 61.5489 41.3598 61.5489 41.4231C61.5489 41.4624 61.5565 41.4967 61.5718 41.526C61.5871 41.5557 61.6172 41.5847 61.6622 41.6131C61.7068 41.6415 61.7396 41.6605 61.7605 41.6701C61.7811 41.6802 61.8263 41.7005 61.8962 41.7311C62.0359 41.7879 62.1452 41.8523 62.2238 41.9244C62.3024 41.9965 62.3417 42.0937 62.3417 42.216ZM63.0756 42.3274L62.653 43.0612H62.4269L62.7316 42.3274H63.0756ZM64.4877 41.7868L64.4254 42.6583H64.1601L64.3206 40.4501H64.658L64.9496 41.256L65.3035 42.2848C65.4302 41.9266 65.5546 41.5837 65.677 41.256L65.9817 40.4501H66.3191L66.5124 42.6583H66.247L66.1717 41.7868L66.093 40.8072C65.9773 41.1304 65.8582 41.457 65.7359 41.7868L65.428 42.6091H65.1757L64.8841 41.7868L64.5499 40.8268C64.5499 40.912 64.5292 41.232 64.4877 41.7868ZM67.4848 42.4584C67.6027 42.4584 67.6967 42.425 67.7666 42.3582C67.8365 42.2918 67.8714 42.2072 67.8714 42.1046V41.8916H67.5831C67.4433 41.8916 67.3385 41.9189 67.2686 41.9735C67.1987 42.0281 67.1637 42.0969 67.1637 42.1799C67.1637 42.2629 67.191 42.33 67.2456 42.3811C67.3002 42.4326 67.38 42.4584 67.4848 42.4584ZM67.8747 42.6583V42.4617C67.7895 42.6037 67.6344 42.6746 67.4095 42.6746C67.2544 42.6746 67.1294 42.6288 67.0346 42.537C66.9394 42.4453 66.8918 42.3295 66.8918 42.1898C66.8918 42.0303 66.9525 41.9063 67.074 41.8176C67.195 41.7293 67.3603 41.6852 67.57 41.6852H67.8714V41.6C67.8714 41.469 67.8419 41.37 67.7829 41.3032C67.724 41.2368 67.6246 41.2036 67.4848 41.2036C67.3079 41.2036 67.1506 41.2506 67.013 41.3445V41.0857C67.1375 41.0092 67.3013 40.971 67.5045 40.971C67.9216 40.971 68.1302 41.1829 68.1302 41.6066V42.6583H67.8747ZM68.8445 40.3551V42.6583H68.5889V40.3551H68.8445ZM69.8372 40.9972L69.1819 41.7868L69.8568 42.6583H69.5456L68.8772 41.7868L69.5292 40.9972H69.8372ZM71.3737 42.3306V42.5731C71.2449 42.6408 71.0876 42.6746 70.9019 42.6746C70.6508 42.6746 70.4481 42.5975 70.2939 42.4433C70.1401 42.2896 70.0632 42.086 70.0632 41.8326C70.0632 41.5684 70.132 41.3598 70.2696 41.2069C70.4072 41.054 70.5841 40.9775 70.8004 40.9775C71.0079 40.9775 71.1728 41.0442 71.2951 41.1774C71.4174 41.3106 71.4786 41.4996 71.4786 41.7442C71.4786 41.8141 71.4731 41.8785 71.4622 41.9375H70.3286C70.3483 42.1013 70.4105 42.2269 70.5153 42.3143C70.6202 42.4016 70.7578 42.4453 70.9282 42.4453C71.1138 42.4453 71.2623 42.4071 71.3737 42.3306ZM70.8004 41.2036C70.6759 41.2036 70.57 41.2484 70.4826 41.3379C70.3952 41.4275 70.3439 41.5553 70.3286 41.7213H71.2197V41.6557C71.2197 41.5181 71.1826 41.4083 71.1083 41.3261C71.0341 41.2444 70.9314 41.2036 70.8004 41.2036ZM73.1193 42.4584C73.2373 42.4584 73.3312 42.425 73.4011 42.3582C73.471 42.2918 73.5059 42.2072 73.5059 42.1046V41.8916H73.2176C73.0778 41.8916 72.973 41.9189 72.9031 41.9735C72.8332 42.0281 72.7982 42.0969 72.7982 42.1799C72.7982 42.2629 72.8255 42.33 72.8801 42.3811C72.9348 42.4326 73.0145 42.4584 73.1193 42.4584ZM73.5092 42.6583V42.4617C73.424 42.6037 73.2689 42.6746 73.044 42.6746C72.8889 42.6746 72.764 42.6288 72.6692 42.537C72.5739 42.4453 72.5263 42.3295 72.5263 42.1898C72.5263 42.0303 72.587 41.9063 72.7085 41.8176C72.8295 41.7293 72.9948 41.6852 73.2045 41.6852H73.5059V41.6C73.5059 41.469 73.4764 41.37 73.4175 41.3032C73.3585 41.2368 73.2591 41.2036 73.1193 41.2036C72.9424 41.2036 72.7851 41.2506 72.6475 41.3445V41.0857C72.772 41.0092 72.9358 40.971 73.139 40.971C73.5562 40.971 73.7647 41.1829 73.7647 41.6066V42.6583H73.5092ZM75.9631 41.9604L75.7567 42.6583H75.4193L74.8426 40.4501H75.1211L75.3275 41.2691L75.5994 42.3798C75.7218 41.932 75.8255 41.5618 75.9107 41.2691L76.14 40.4828H76.4054L76.6479 41.2691L76.982 42.3896C77.0825 41.9069 77.1633 41.5345 77.2245 41.2724L77.4112 40.4501H77.6799L77.1622 42.6583H76.8215L76.6085 41.9604L76.2776 40.8563C76.2099 41.1141 76.1051 41.4821 75.9631 41.9604ZM78.3083 40.9972V42.6583H78.0494V40.9972H78.3083ZM78.2984 40.3551C78.3312 40.3878 78.3476 40.4282 78.3476 40.4763C78.3476 40.5243 78.3312 40.5641 78.2984 40.5955C78.2657 40.6274 78.2253 40.6434 78.1772 40.6434C78.1292 40.6434 78.0894 40.6274 78.058 40.5955C78.0261 40.5641 78.0101 40.5243 78.0101 40.4763C78.0101 40.4282 78.0261 40.3878 78.058 40.3551C78.0894 40.3223 78.1292 40.3059 78.1772 40.3059C78.2253 40.3059 78.2657 40.3223 78.2984 40.3551ZM79.799 42.216C79.799 42.3579 79.7494 42.4704 79.6502 42.5534C79.5506 42.6364 79.4145 42.6779 79.242 42.6779C79.0411 42.6779 78.8783 42.6441 78.7538 42.5764V42.3241C78.9002 42.4115 79.0574 42.4551 79.2256 42.4551C79.3261 42.4551 79.4025 42.4355 79.455 42.3962C79.5074 42.3568 79.5336 42.3033 79.5336 42.2356C79.5336 42.157 79.5048 42.0958 79.4471 42.0522C79.389 42.0085 79.2922 41.9593 79.1568 41.9047C79.0323 41.8567 78.9325 41.7966 78.8574 41.7245C78.7818 41.6525 78.744 41.5553 78.744 41.4329C78.744 41.2953 78.796 41.1855 78.9 41.1034C79.0035 41.0217 79.1328 40.9808 79.2879 40.9808C79.4604 40.9808 79.5991 41.0048 79.7039 41.0529V41.2986C79.6035 41.2375 79.4659 41.2069 79.2911 41.2069C79.2038 41.2069 79.1345 41.227 79.0834 41.2672C79.0319 41.3078 79.0061 41.3598 79.0061 41.4231C79.0061 41.4624 79.0138 41.4967 79.029 41.526C79.0443 41.5557 79.0745 41.5847 79.1195 41.6131C79.164 41.6415 79.1968 41.6605 79.2178 41.6701C79.2383 41.6802 79.2835 41.7005 79.3534 41.7311C79.4932 41.7879 79.6024 41.8523 79.681 41.9244C79.7596 41.9965 79.799 42.0937 79.799 42.216ZM81.46 41.5214V42.6583H81.2012V41.5837C81.2012 41.4635 81.17 41.3707 81.1075 41.3052C81.0455 41.2396 80.9642 41.2069 80.8637 41.2069C80.7414 41.2069 80.6344 41.2538 80.5427 41.3478C80.4509 41.4417 80.4051 41.576 80.4051 41.7507V42.6583H80.1495V40.3419H80.4051V41.2855C80.5034 41.078 80.6781 40.9743 80.9293 40.9743C81.0887 40.9743 81.2169 41.0234 81.3139 41.1217C81.4113 41.22 81.46 41.3532 81.46 41.5214ZM82.2168 40.4501V41.9899H81.9646V40.4501H82.2168ZM82.2824 42.4912C82.2824 42.5458 82.2638 42.5916 82.2267 42.6288C82.1895 42.6659 82.1426 42.6845 82.0858 42.6845C82.029 42.6845 81.9825 42.6659 81.9462 42.6288C81.9104 42.5916 81.8925 42.5458 81.8925 42.4912C81.8925 42.4388 81.9111 42.3933 81.9482 42.3549C81.9853 42.3169 82.0312 42.2979 82.0858 42.2979C82.1404 42.2979 82.1867 42.3169 82.2247 42.3549C82.2631 42.3933 82.2824 42.4388 82.2824 42.4912Z" fill="#7C7C76"/>
</g>
</g>
</g>
</g>
</g>
</g>
<mask id="mask0_61_203" style="mask-type:luminance" maskUnits="userSpaceOnUse" x="0" y="-1" width="117" height="45">
<g clip-path="url(#clip10_61_203)">
<g clip-path="url(#clip11_61_203)">
<g clip-path="url(#clip12_61_203)">
<g clip-path="url(#clip13_61_203)">
<g clip-path="url(#clip14_61_203)">
<g clip-path="url(#clip15_61_203)">
<g clip-path="url(#clip16_61_203)">
<path d="M35.9838 13.6549C35.8068 13.1239 35.5118 12.6135 35.0987 12.1237C34.6857 11.6399 34.2727 11.28 33.8596 11.0439L35.0987 9.18527C36.7214 10.2769 37.872 11.8848 38.5506 14.009L43.2415 28.2145L49.2158 9.93759H51.694L57.6683 28.2145L63.6427 9.93759H66.1209L58.9075 32.0204H56.4292L50.4549 13.7434L44.4806 32.0204H41.9581L35.9838 13.6549ZM70.5905 32.0647V9.89334H73.2458V32.0647H70.5905ZM71.8297 7.06107C71.3281 7.06107 70.8915 6.87521 70.5197 6.50347C70.1539 6.13764 69.971 5.70394 69.971 5.2024C69.971 4.67135 70.1539 4.21996 70.5197 3.84822C70.8915 3.48239 71.3281 3.29947 71.8297 3.29947C72.3607 3.29947 72.8092 3.48239 73.175 3.84822C73.5467 4.21996 73.7326 4.67135 73.7326 5.2024C73.7326 5.70394 73.5467 6.13764 73.175 6.50347C72.8092 6.87521 72.3607 7.06107 71.8297 7.06107ZM86.4335 32.5957C83.4538 32.5957 80.6805 31.4451 78.1138 29.1439L79.5741 27.3737C80.6952 28.2883 81.8075 28.9875 82.9109 29.4714C84.0202 29.9611 85.2092 30.206 86.4778 30.206C88.0709 30.206 89.3159 29.8283 90.2128 29.0731C91.1156 28.3237 91.567 27.3 91.567 26.0018C91.567 25.1758 91.3664 24.5031 90.9651 23.9839C90.5639 23.4705 90.0329 23.0516 89.372 22.727C88.7111 22.4025 87.5251 21.8862 85.814 21.1781C84.2503 20.5291 83.0407 19.9685 82.1851 19.4965C81.3296 19.0244 80.651 18.4403 80.1494 17.744C79.6479 17.0537 79.3971 16.1774 79.3971 15.1153C79.3971 13.3747 80.0167 11.9792 81.2558 10.9289C82.4949 9.88449 84.1471 9.36229 86.2123 9.36229C87.2744 9.36229 88.3276 9.5098 89.372 9.80483C90.4223 10.0999 91.3162 10.5276 92.0538 11.0882L90.9475 12.9911C89.5903 12.165 88.0562 11.752 86.345 11.752C84.9879 11.752 83.9405 12.0175 83.203 12.5486C82.4654 13.0796 82.0966 13.832 82.0966 14.8055C82.0966 15.5431 82.2943 16.1479 82.6896 16.62C83.0909 17.092 83.6072 17.4814 84.2385 17.7883C84.8758 18.101 85.932 18.5524 87.4071 19.1424C89.0829 19.821 90.3869 20.4317 91.3192 20.9746C92.2515 21.5233 92.9743 22.1871 93.4876 22.966C94.0069 23.7508 94.2665 24.7185 94.2665 25.8691C94.2665 27.9048 93.5496 29.5333 92.1158 30.7547C90.6878 31.982 88.7938 32.5957 86.4335 32.5957ZM99.1256 -0.0638428H101.781V13.1681C102.695 11.8995 103.758 10.9702 104.967 10.3801C106.177 9.79008 107.578 9.49505 109.171 9.49505C111.561 9.49505 113.355 10.1205 114.553 11.3714C115.745 12.6282 116.34 14.4073 116.34 16.7085V32.0647H113.685V17.1953C113.685 15.5726 113.287 14.2951 112.49 13.3629C111.694 12.4365 110.499 11.9733 108.906 11.9733C107.49 11.9733 106.221 12.3421 105.1 13.0796C103.979 13.8172 102.872 14.9236 101.781 16.3987V32.0647H99.1256V-0.0638428Z" fill="black"/>
</g>
</g>
<g clip-path="url(#clip17_61_203)">
<g clip-path="url(#clip18_61_203)">
<path d="M35.5354 42.2684V42.5469C35.3999 42.6386 35.2143 42.6845 34.9784 42.6845C34.6464 42.6845 34.3767 42.5823 34.1692 42.3778C33.9617 42.1738 33.8579 41.896 33.8579 41.5443C33.8579 41.2123 33.9634 40.9419 34.1744 40.7331C34.385 40.5248 34.6497 40.4206 34.9686 40.4206C35.1979 40.4206 35.3846 40.4599 35.5288 40.5385V40.8105C35.4327 40.7602 35.3464 40.7242 35.27 40.7023C35.1935 40.6805 35.0931 40.6696 34.9686 40.6696C34.7305 40.6696 34.5324 40.7504 34.3742 40.912C34.2157 41.0736 34.1364 41.2844 34.1364 41.5443C34.1364 41.8152 34.215 42.0314 34.3723 42.193C34.5295 42.3547 34.7381 42.4355 34.998 42.4355C35.2077 42.4355 35.3868 42.3798 35.5354 42.2684ZM36.4199 42.4584C36.5379 42.4584 36.6318 42.425 36.7017 42.3582C36.7716 42.2918 36.8065 42.2072 36.8065 42.1046V41.8916H36.5182C36.3784 41.8916 36.2736 41.9189 36.2037 41.9735C36.1338 42.0281 36.0989 42.0969 36.0989 42.1799C36.0989 42.2629 36.1262 42.33 36.1808 42.3811C36.2354 42.4326 36.3151 42.4584 36.4199 42.4584ZM36.8098 42.6583V42.4617C36.7246 42.6037 36.5696 42.6746 36.3446 42.6746C36.1895 42.6746 36.0644 42.6288 35.9691 42.537C35.8743 42.4453 35.8269 42.3295 35.8269 42.1898C35.8269 42.0303 35.8874 41.9063 36.0084 41.8176C36.1299 41.7293 36.2954 41.6852 36.5051 41.6852H36.8065V41.6C36.8065 41.469 36.7771 41.37 36.7181 41.3032C36.6591 41.2368 36.5597 41.2036 36.4199 41.2036C36.243 41.2036 36.0858 41.2506 35.9482 41.3445V41.0857C36.0727 41.0092 36.2365 40.971 36.4396 40.971C36.8568 40.971 37.0654 41.1829 37.0654 41.6066V42.6583H36.8098ZM38.3562 42.37V42.6157C38.2841 42.655 38.2033 42.6746 38.1138 42.6746C37.7861 42.6746 37.6223 42.5076 37.6223 42.1734V41.2069H37.357V40.9972H37.6223V40.5844H37.8812V40.9972H38.3398V41.2069H37.8812V42.1799C37.8812 42.3568 37.9642 42.4453 38.1302 42.4453C38.2153 42.4453 38.2907 42.4202 38.3562 42.37ZM39.8757 42.3536V42.5993C39.7709 42.6626 39.642 42.6943 39.4891 42.6943C39.227 42.6943 39.0191 42.6106 38.8653 42.4433C38.7111 42.2765 38.634 42.0729 38.634 41.8326C38.634 41.5968 38.7111 41.3936 38.8653 41.2233C39.0191 41.0529 39.2292 40.9677 39.4957 40.9677C39.6377 40.9677 39.7644 40.9983 39.8757 41.0594V41.3052C39.7753 41.2375 39.6573 41.2036 39.5219 41.2036C39.3341 41.2036 39.184 41.2641 39.0718 41.3851C38.959 41.5065 38.9027 41.6568 38.9027 41.8359C38.9049 42.015 38.9595 42.164 39.0665 42.2828C39.1735 42.4021 39.3253 42.4617 39.5219 42.4617C39.6486 42.4617 39.7665 42.4257 39.8757 42.3536ZM41.586 41.5214V42.6583H41.3271V41.5837C41.3271 41.4635 41.2961 41.3707 41.2341 41.3052C41.1716 41.2396 41.0901 41.2069 40.9897 41.2069C40.8674 41.2069 40.7603 41.2538 40.6686 41.3478C40.5769 41.4417 40.531 41.576 40.531 41.7507V42.6583H40.2755V40.3419H40.531V41.2855C40.6293 41.078 40.804 40.9743 41.0552 40.9743C41.2146 40.9743 41.3431 41.0234 41.4405 41.1217C41.5375 41.22 41.586 41.3532 41.586 41.5214ZM43.6172 42.37V42.6157C43.5452 42.655 43.4643 42.6746 43.3748 42.6746C43.0472 42.6746 42.8834 42.5076 42.8834 42.1734V41.2069H42.618V40.9972H42.8834V40.5844H43.1422V40.9972H43.6009V41.2069H43.1422V42.1799C43.1422 42.3568 43.2252 42.4453 43.3912 42.4453C43.4764 42.4453 43.5517 42.4202 43.6172 42.37ZM45.3039 41.5214V42.6583H45.045V41.5837C45.045 41.4635 45.014 41.3707 44.952 41.3052C44.8895 41.2396 44.8081 41.2069 44.7076 41.2069C44.5853 41.2069 44.4782 41.2538 44.3865 41.3478C44.2948 41.4417 44.2489 41.576 44.2489 41.7507V42.6583H43.9934V40.3419H44.2489V41.2855C44.3472 41.078 44.5219 40.9743 44.7731 40.9743C44.9325 40.9743 45.061 41.0234 45.1584 41.1217C45.2554 41.22 45.3039 41.3532 45.3039 41.5214ZM46.9748 42.3306V42.5731C46.8459 42.6408 46.6886 42.6746 46.503 42.6746C46.2518 42.6746 46.0493 42.5975 45.8956 42.4433C45.7413 42.2896 45.6642 42.086 45.6642 41.8326C45.6642 41.5684 45.733 41.3598 45.8707 41.2069C46.0083 41.054 46.1852 40.9775 46.4014 40.9775C46.6089 40.9775 46.7738 41.0442 46.8961 41.1774C47.0184 41.3106 47.0796 41.4996 47.0796 41.7442C47.0796 41.8141 47.0741 41.8785 47.0632 41.9375H45.9296C45.9493 42.1013 46.0115 42.2269 46.1164 42.3143C46.2212 42.4016 46.3588 42.4453 46.5292 42.4453C46.7148 42.4453 46.8634 42.4071 46.9748 42.3306ZM46.4014 41.2036C46.2769 41.2036 46.171 41.2484 46.0836 41.3379C45.9962 41.4275 45.9449 41.5553 45.9296 41.7213H46.8208V41.6557C46.8208 41.5181 46.7836 41.4083 46.7094 41.3261C46.6351 41.2444 46.5325 41.2036 46.4014 41.2036ZM49.0322 42.6583H48.2263V40.4501H48.8914C49.1185 40.4501 49.3002 40.5025 49.4365 40.6073C49.5733 40.7122 49.6416 40.853 49.6416 41.03C49.6416 41.1566 49.606 41.2663 49.5348 41.3589C49.4641 41.4519 49.373 41.5105 49.2616 41.5345C49.3839 41.5542 49.4881 41.6092 49.5741 41.6996C49.6606 41.7905 49.7039 41.9135 49.7039 42.0685C49.7039 42.2455 49.6453 42.3879 49.5283 42.4958C49.4116 42.6041 49.2463 42.6583 49.0322 42.6583ZM48.8914 40.6761H48.4917V41.4297H48.8455C49.0224 41.4297 49.1535 41.3925 49.2386 41.3183C49.3238 41.244 49.3664 41.1479 49.3664 41.03C49.3664 40.9273 49.3265 40.8426 49.2465 40.7757C49.167 40.7093 49.0486 40.6761 48.8914 40.6761ZM48.9438 41.6557H48.4917V42.4322H48.9929C49.1327 42.4322 49.2402 42.3999 49.3153 42.3352C49.3909 42.271 49.4287 42.1767 49.4287 42.0522C49.4287 41.9277 49.3865 41.8305 49.3022 41.7606C49.2183 41.6907 49.0989 41.6557 48.9438 41.6557ZM51.2955 42.3306V42.5731C51.1666 42.6408 51.0094 42.6746 50.8237 42.6746C50.5725 42.6746 50.3701 42.5975 50.2163 42.4433C50.0621 42.2896 49.985 42.086 49.985 41.8326C49.985 41.5684 50.0538 41.3598 50.1914 41.2069C50.329 41.054 50.5059 40.9775 50.7221 40.9775C50.9296 40.9775 51.0945 41.0442 51.2169 41.1774C51.3392 41.3106 51.4003 41.4996 51.4003 41.7442C51.4003 41.8141 51.3949 41.8785 51.3839 41.9375H50.2504C50.27 42.1013 50.3323 42.2269 50.4371 42.3143C50.5419 42.4016 50.6795 42.4453 50.8499 42.4453C51.0356 42.4453 51.1841 42.4071 51.2955 42.3306ZM50.7221 41.2036C50.5976 41.2036 50.4917 41.2484 50.4043 41.3379C50.317 41.4275 50.2656 41.5553 50.2504 41.7213H51.1415V41.6557C51.1415 41.5181 51.1044 41.4083 51.0301 41.3261C50.9558 41.2444 50.8532 41.2036 50.7221 41.2036ZM52.7927 42.216C52.7927 42.3579 52.7432 42.4704 52.644 42.5534C52.5444 42.6364 52.4083 42.6779 52.2358 42.6779C52.0348 42.6779 51.8721 42.6441 51.7476 42.5764V42.3241C51.8939 42.4115 52.0512 42.4551 52.2194 42.4551C52.3199 42.4551 52.3963 42.4355 52.4487 42.3962C52.5012 42.3568 52.5274 42.3033 52.5274 42.2356C52.5274 42.157 52.4985 42.0958 52.4409 42.0522C52.3828 42.0085 52.286 41.9593 52.1506 41.9047C52.0261 41.8567 51.9263 41.7966 51.8511 41.7245C51.7756 41.6525 51.7378 41.5553 51.7378 41.4329C51.7378 41.2953 51.7898 41.1855 51.8937 41.1034C51.9973 41.0217 52.1266 40.9808 52.2816 40.9808C52.4542 40.9808 52.5929 41.0048 52.6977 41.0529V41.2986C52.5973 41.2375 52.4597 41.2069 52.2849 41.2069C52.1975 41.2069 52.1283 41.227 52.0772 41.2672C52.0257 41.3078 51.9999 41.3598 51.9999 41.4231C51.9999 41.4624 52.0075 41.4967 52.0228 41.526C52.0381 41.5557 52.0682 41.5847 52.1132 41.6131C52.1578 41.6415 52.1906 41.6605 52.2115 41.6701C52.2321 41.6802 52.2773 41.7005 52.3472 41.7311C52.487 41.7879 52.5962 41.8523 52.6748 41.9244C52.7534 41.9965 52.7927 42.0937 52.7927 42.216ZM53.9755 42.37V42.6157C53.9034 42.655 53.8226 42.6746 53.733 42.6746C53.4054 42.6746 53.2416 42.5076 53.2416 42.1734V41.2069H52.9762V40.9972H53.2416V40.5844H53.5004V40.9972H53.9591V41.2069H53.5004V42.1799C53.5004 42.3568 53.5834 42.4453 53.7494 42.4453C53.8346 42.4453 53.9099 42.4202 53.9755 42.37ZM55.7735 42.6583H55.1051V40.4501H55.7604C56.0858 40.4501 56.3529 40.551 56.5618 40.7528C56.7701 40.955 56.8743 41.2167 56.8743 41.5378C56.8743 41.8567 56.7778 42.1231 56.5847 42.3372C56.3912 42.5512 56.1208 42.6583 55.7735 42.6583ZM55.7571 40.686H55.3738V42.4257H55.7702C56.0432 42.4257 56.2496 42.3409 56.3894 42.1714C56.5292 42.0024 56.5991 41.7911 56.5991 41.5378C56.5991 41.2975 56.5211 41.0955 56.3652 40.9317C56.2088 40.7679 56.0061 40.686 55.7571 40.686ZM58.4698 42.3306V42.5731C58.341 42.6408 58.1837 42.6746 57.9981 42.6746C57.7469 42.6746 57.5444 42.5975 57.3906 42.4433C57.2364 42.2896 57.1593 42.086 57.1593 41.8326C57.1593 41.5684 57.2281 41.3598 57.3657 41.2069C57.5033 41.054 57.6803 40.9775 57.8965 40.9775C58.104 40.9775 58.2689 41.0442 58.3912 41.1774C58.5135 41.3106 58.5747 41.4996 58.5747 41.7442C58.5747 41.8141 58.5692 41.8785 58.5583 41.9375H57.4247C57.4444 42.1013 57.5066 42.2269 57.6115 42.3143C57.7163 42.4016 57.8539 42.4453 58.0243 42.4453C58.2099 42.4453 58.3585 42.4071 58.4698 42.3306ZM57.8965 41.2036C57.772 41.2036 57.6661 41.2484 57.5787 41.3379C57.4913 41.4275 57.44 41.5553 57.4247 41.7213H58.3159V41.6557C58.3159 41.5181 58.2787 41.4083 58.2045 41.3261C58.1302 41.2444 58.0275 41.2036 57.8965 41.2036ZM59.4757 42.4584C59.5936 42.4584 59.6875 42.425 59.7574 42.3582C59.8273 42.2918 59.8623 42.2072 59.8623 42.1046V41.8916H59.5739C59.4342 41.8916 59.3293 41.9189 59.2594 41.9735C59.1895 42.0281 59.1546 42.0969 59.1546 42.1799C59.1546 42.2629 59.1819 42.33 59.2365 42.3811C59.2911 42.4326 59.3708 42.4584 59.4757 42.4584ZM59.8655 42.6583V42.4617C59.7803 42.6037 59.6253 42.6746 59.4003 42.6746C59.2452 42.6746 59.1201 42.6288 59.0248 42.537C58.93 42.4453 58.8827 42.3295 58.8827 42.1898C58.8827 42.0303 58.9432 41.9063 59.0642 41.8176C59.1856 41.7293 59.3512 41.6852 59.5608 41.6852H59.8623V41.6C59.8623 41.469 59.8328 41.37 59.7738 41.3032C59.7148 41.2368 59.6154 41.2036 59.4757 41.2036C59.2987 41.2036 59.1415 41.2506 59.0039 41.3445V41.0857C59.1284 41.0092 59.2922 40.971 59.4953 40.971C59.9125 40.971 60.1211 41.1829 60.1211 41.6066V42.6583H59.8655ZM60.8517 40.3419V42.6583H60.5929V40.3419H60.8517ZM62.3417 42.216C62.3417 42.3579 62.2921 42.4704 62.193 42.5534C62.0934 42.6364 61.9573 42.6779 61.7848 42.6779C61.5838 42.6779 61.4211 42.6441 61.2966 42.5764V42.3241C61.4429 42.4115 61.6002 42.4551 61.7684 42.4551C61.8689 42.4551 61.9453 42.4355 61.9977 42.3962C62.0501 42.3568 62.0764 42.3033 62.0764 42.2356C62.0764 42.157 62.0475 42.0958 61.9899 42.0522C61.9318 42.0085 61.835 41.9593 61.6996 41.9047C61.5751 41.8567 61.4753 41.7966 61.4001 41.7245C61.3246 41.6525 61.2868 41.5553 61.2868 41.4329C61.2868 41.2953 61.3388 41.1855 61.4427 41.1034C61.5463 41.0217 61.6756 40.9808 61.8306 40.9808C62.0032 40.9808 62.1419 41.0048 62.2467 41.0529V41.2986C62.1462 41.2375 62.0086 41.2069 61.8339 41.2069C61.7465 41.2069 61.6773 41.227 61.6262 41.2672C61.5746 41.3078 61.5489 41.3598 61.5489 41.4231C61.5489 41.4624 61.5565 41.4967 61.5718 41.526C61.5871 41.5557 61.6172 41.5847 61.6622 41.6131C61.7068 41.6415 61.7396 41.6605 61.7605 41.6701C61.7811 41.6802 61.8263 41.7005 61.8962 41.7311C62.0359 41.7879 62.1452 41.8523 62.2238 41.9244C62.3024 41.9965 62.3417 42.0937 62.3417 42.216ZM63.0756 42.3274L62.653 43.0612H62.4269L62.7316 42.3274H63.0756ZM64.4877 41.7868L64.4254 42.6583H64.1601L64.3206 40.4501H64.658L64.9496 41.256L65.3035 42.2848C65.4302 41.9266 65.5546 41.5837 65.677 41.256L65.9817 40.4501H66.3191L66.5124 42.6583H66.247L66.1717 41.7868L66.093 40.8072C65.9773 41.1304 65.8582 41.457 65.7359 41.7868L65.428 42.6091H65.1757L64.8841 41.7868L64.5499 40.8268C64.5499 40.912 64.5292 41.232 64.4877 41.7868ZM67.4848 42.4584C67.6027 42.4584 67.6967 42.425 67.7666 42.3582C67.8365 42.2918 67.8714 42.2072 67.8714 42.1046V41.8916H67.5831C67.4433 41.8916 67.3385 41.9189 67.2686 41.9735C67.1987 42.0281 67.1637 42.0969 67.1637 42.1799C67.1637 42.2629 67.191 42.33 67.2456 42.3811C67.3002 42.4326 67.38 42.4584 67.4848 42.4584ZM67.8747 42.6583V42.4617C67.7895 42.6037 67.6344 42.6746 67.4095 42.6746C67.2544 42.6746 67.1294 42.6288 67.0346 42.537C66.9394 42.4453 66.8918 42.3295 66.8918 42.1898C66.8918 42.0303 66.9525 41.9063 67.074 41.8176C67.195 41.7293 67.3603 41.6852 67.57 41.6852H67.8714V41.6C67.8714 41.469 67.8419 41.37 67.7829 41.3032C67.724 41.2368 67.6246 41.2036 67.4848 41.2036C67.3079 41.2036 67.1506 41.2506 67.013 41.3445V41.0857C67.1375 41.0092 67.3013 40.971 67.5045 40.971C67.9216 40.971 68.1302 41.1829 68.1302 41.6066V42.6583H67.8747ZM68.8445 40.3551V42.6583H68.5889V40.3551H68.8445ZM69.8372 40.9972L69.1819 41.7868L69.8568 42.6583H69.5456L68.8772 41.7868L69.5292 40.9972H69.8372ZM71.3737 42.3306V42.5731C71.2449 42.6408 71.0876 42.6746 70.9019 42.6746C70.6508 42.6746 70.4481 42.5975 70.2939 42.4433C70.1401 42.2896 70.0632 42.086 70.0632 41.8326C70.0632 41.5684 70.132 41.3598 70.2696 41.2069C70.4072 41.054 70.5841 40.9775 70.8004 40.9775C71.0079 40.9775 71.1728 41.0442 71.2951 41.1774C71.4174 41.3106 71.4786 41.4996 71.4786 41.7442C71.4786 41.8141 71.4731 41.8785 71.4622 41.9375H70.3286C70.3483 42.1013 70.4105 42.2269 70.5153 42.3143C70.6202 42.4016 70.7578 42.4453 70.9282 42.4453C71.1138 42.4453 71.2623 42.4071 71.3737 42.3306ZM70.8004 41.2036C70.6759 41.2036 70.57 41.2484 70.4826 41.3379C70.3952 41.4275 70.3439 41.5553 70.3286 41.7213H71.2197V41.6557C71.2197 41.5181 71.1826 41.4083 71.1083 41.3261C71.0341 41.2444 70.9314 41.2036 70.8004 41.2036ZM73.1193 42.4584C73.2373 42.4584 73.3312 42.425 73.4011 42.3582C73.471 42.2918 73.5059 42.2072 73.5059 42.1046V41.8916H73.2176C73.0778 41.8916 72.973 41.9189 72.9031 41.9735C72.8332 42.0281 72.7982 42.0969 72.7982 42.1799C72.7982 42.2629 72.8255 42.33 72.8801 42.3811C72.9348 42.4326 73.0145 42.4584 73.1193 42.4584ZM73.5092 42.6583V42.4617C73.424 42.6037 73.2689 42.6746 73.044 42.6746C72.8889 42.6746 72.764 42.6288 72.6692 42.537C72.5739 42.4453 72.5263 42.3295 72.5263 42.1898C72.5263 42.0303 72.587 41.9063 72.7085 41.8176C72.8295 41.7293 72.9948 41.6852 73.2045 41.6852H73.5059V41.6C73.5059 41.469 73.4764 41.37 73.4175 41.3032C73.3585 41.2368 73.2591 41.2036 73.1193 41.2036C72.9424 41.2036 72.7851 41.2506 72.6475 41.3445V41.0857C72.772 41.0092 72.9358 40.971 73.139 40.971C73.5562 40.971 73.7647 41.1829 73.7647 41.6066V42.6583H73.5092ZM75.9631 41.9604L75.7567 42.6583H75.4193L74.8426 40.4501H75.1211L75.3275 41.2691L75.5994 42.3798C75.7218 41.932 75.8255 41.5618 75.9107 41.2691L76.14 40.4828H76.4054L76.6479 41.2691L76.982 42.3896C77.0825 41.9069 77.1633 41.5345 77.2245 41.2724L77.4112 40.4501H77.6799L77.1622 42.6583H76.8215L76.6085 41.9604L76.2776 40.8563C76.2099 41.1141 76.1051 41.4821 75.9631 41.9604ZM78.3083 40.9972V42.6583H78.0494V40.9972H78.3083ZM78.2984 40.3551C78.3312 40.3878 78.3476 40.4282 78.3476 40.4763C78.3476 40.5243 78.3312 40.5641 78.2984 40.5955C78.2657 40.6274 78.2253 40.6434 78.1772 40.6434C78.1292 40.6434 78.0894 40.6274 78.058 40.5955C78.0261 40.5641 78.0101 40.5243 78.0101 40.4763C78.0101 40.4282 78.0261 40.3878 78.058 40.3551C78.0894 40.3223 78.1292 40.3059 78.1772 40.3059C78.2253 40.3059 78.2657 40.3223 78.2984 40.3551ZM79.799 42.216C79.799 42.3579 79.7494 42.4704 79.6502 42.5534C79.5506 42.6364 79.4145 42.6779 79.242 42.6779C79.0411 42.6779 78.8783 42.6441 78.7538 42.5764V42.3241C78.9002 42.4115 79.0574 42.4551 79.2256 42.4551C79.3261 42.4551 79.4025 42.4355 79.455 42.3962C79.5074 42.3568 79.5336 42.3033 79.5336 42.2356C79.5336 42.157 79.5048 42.0958 79.4471 42.0522C79.389 42.0085 79.2922 41.9593 79.1568 41.9047C79.0323 41.8567 78.9325 41.7966 78.8574 41.7245C78.7818 41.6525 78.744 41.5553 78.744 41.4329C78.744 41.2953 78.796 41.1855 78.9 41.1034C79.0035 41.0217 79.1328 40.9808 79.2879 40.9808C79.4604 40.9808 79.5991 41.0048 79.7039 41.0529V41.2986C79.6035 41.2375 79.4659 41.2069 79.2911 41.2069C79.2038 41.2069 79.1345 41.227 79.0834 41.2672C79.0319 41.3078 79.0061 41.3598 79.0061 41.4231C79.0061 41.4624 79.0138 41.4967 79.029 41.526C79.0443 41.5557 79.0745 41.5847 79.1195 41.6131C79.164 41.6415 79.1968 41.6605 79.2178 41.6701C79.2383 41.6802 79.2835 41.7005 79.3534 41.7311C79.4932 41.7879 79.6024 41.8523 79.681 41.9244C79.7596 41.9965 79.799 42.0937 79.799 42.216ZM81.46 41.5214V42.6583H81.2012V41.5837C81.2012 41.4635 81.17 41.3707 81.1075 41.3052C81.0455 41.2396 80.9642 41.2069 80.8637 41.2069C80.7414 41.2069 80.6344 41.2538 80.5427 41.3478C80.4509 41.4417 80.4051 41.576 80.4051 41.7507V42.6583H80.1495V40.3419H80.4051V41.2855C80.5034 41.078 80.6781 40.9743 80.9293 40.9743C81.0887 40.9743 81.2169 41.0234 81.3139 41.1217C81.4113 41.22 81.46 41.3532 81.46 41.5214ZM82.2168 40.4501V41.9899H81.9646V40.4501H82.2168ZM82.2824 42.4912C82.2824 42.5458 82.2638 42.5916 82.2267 42.6288C82.1895 42.6659 82.1426 42.6845 82.0858 42.6845C82.029 42.6845 81.9825 42.6659 81.9462 42.6288C81.9104 42.5916 81.8925 42.5458 81.8925 42.4912C81.8925 42.4388 81.9111 42.3933 81.9482 42.3549C81.9853 42.3169 82.0312 42.2979 82.0858 42.2979C82.1404 42.2979 82.1867 42.3169 82.2247 42.3549C82.2631 42.3933 82.2824 42.4388 82.2824 42.4912Z" fill="black"/>
</g>
</g>
</g>
</g>
<g clip-path="url(#clip19_61_203)">
<g clip-path="url(#clip20_61_203)">
<path fill-rule="evenodd" clip-rule="evenodd" d="M14.897 21.9983L15.0185 22.8403L8.122 29.7366H7.15845L14.897 21.9983Z" fill="white"/>
<path fill-rule="evenodd" clip-rule="evenodd" d="M1.8626 34.3683H0.655518L14.6635 20.3632L14.8131 21.4183L1.8626 34.3683Z" fill="white"/>
<path fill-rule="evenodd" clip-rule="evenodd" d="M2.80298 31.5569V30.4432L13.3365 19.9094L14.3024 20.0591L2.80298 31.5569Z" fill="white"/>
<path fill-rule="evenodd" clip-rule="evenodd" d="M1.58667 30.9956V29.9426L11.8514 19.6779L12.7613 19.8205L1.58667 30.9956Z" fill="white"/>
<path fill-rule="evenodd" clip-rule="evenodd" d="M22.762 9.89502C23.0241 9.76397 23.2996 9.72037 23.5899 9.76397C23.8806 9.80757 24.1311 9.93243 24.3432 10.1386C24.5557 10.3411 24.6899 10.5872 24.7454 10.8774C24.7982 11.1643 24.7639 11.4434 24.6427 11.7148L23.0197 15.2612L25.7471 18.0355C25.9496 18.2473 26.0765 18.4989 26.1261 18.7888C26.173 19.0755 26.132 19.352 26.004 19.617C25.8735 19.8788 25.6785 20.0818 25.4195 20.225C25.1604 20.3653 24.886 20.42 24.5957 20.3888L20.7312 19.9394L18.9305 23.3925C18.793 23.6484 18.5949 23.8447 18.3359 23.9822C18.0709 24.1164 17.7946 24.1628 17.508 24.1226C17.2178 24.079 16.965 23.9569 16.7501 23.7578C16.5349 23.555 16.3995 23.3099 16.343 23.023L15.5711 19.2148L11.7252 18.5688C11.438 18.519 11.1904 18.391 10.9812 18.1852C10.7691 17.9759 10.638 17.7283 10.5883 17.4412C10.5385 17.1514 10.5756 16.8736 10.7007 16.6084C10.8253 16.3435 11.0157 16.1376 11.2714 15.9905L14.6682 14.072L14.0877 10.2219C14.0439 9.93191 14.0893 9.65587 14.2232 9.39377C14.3542 9.13192 14.5498 8.93224 14.8083 8.79526C15.0673 8.65466 15.3433 8.60332 15.6366 8.64073C15.9238 8.67813 16.1779 8.79655 16.3995 8.99596L19.2765 11.64L22.762 9.89502Z" fill="white"/>
<path d="M0.628418 34.3687L14.6644 20.3907L14.8384 21.3767L1.84642 34.3687H0.628418Z" stroke="black" stroke-width="0.116"/>
</g>
</g>
</g>
</g>
</g>
</mask>
<g mask="url(#mask0_61_203)">
<path d="M116.345 -0.0638428H0.655518V43.0612H116.345V-0.0638428Z" fill="url(#paint0_linear_61_203)"/>
</g>
</g>
</g>
<defs>
<linearGradient id="paint0_linear_61_203" x1="6.90273" y1="21.4987" x2="109.519" y2="21.4987" gradientUnits="userSpaceOnUse">
<stop stop-color="#26282A"/>
<stop offset="0.498" stop-color="#9E9FA0"/>
<stop offset="1" stop-color="#26282A"/>
</linearGradient>
<clipPath id="clip0_61_203">
<rect width="116" height="42.9973" fill="white" transform="translate(0.5)"/>
</clipPath>
<clipPath id="clip1_61_203">
<rect width="115.689" height="43.125" fill="white" transform="translate(0.655518 -0.0638428)"/>
</clipPath>
<clipPath id="clip2_61_203">
<rect width="115.689" height="43.125" fill="white" transform="translate(0.655518 -0.0638428)"/>
</clipPath>
<clipPath id="clip3_61_203">
<rect width="115.689" height="43.125" fill="white" transform="translate(0.655518 -0.0638428)"/>
</clipPath>
<clipPath id="clip4_61_203">
<rect width="82.4897" height="43.125" fill="white" transform="translate(33.855 -0.0638428)"/>
</clipPath>
<clipPath id="clip5_61_203">
<rect width="82.4897" height="43.125" fill="white" transform="translate(33.855 -0.0638428)"/>
</clipPath>
<clipPath id="clip6_61_203">
<rect width="82.4897" height="32.6595" fill="white" transform="translate(33.855 -0.0638428)"/>
</clipPath>
<clipPath id="clip7_61_203">
<rect width="82.4897" height="32.6595" fill="white" transform="translate(33.855 -0.0638428)"/>
</clipPath>
<clipPath id="clip8_61_203">
<rect width="48.4297" height="2.75534" fill="white" transform="translate(33.855 40.3059)"/>
</clipPath>
<clipPath id="clip9_61_203">
<rect width="48.4297" height="2.75534" fill="white" transform="translate(33.855 40.3059)"/>
</clipPath>
<clipPath id="clip10_61_203">
<rect width="115.689" height="43.125" fill="white" transform="translate(0.655518 -0.0638428)"/>
</clipPath>
<clipPath id="clip11_61_203">
<rect width="115.689" height="43.125" fill="white" transform="translate(0.655518 -0.0638428)"/>
</clipPath>
<clipPath id="clip12_61_203">
<rect width="115.689" height="43.125" fill="white" transform="translate(0.655518 -0.0638428)"/>
</clipPath>
<clipPath id="clip13_61_203">
<rect width="82.4897" height="43.125" fill="white" transform="translate(33.855 -0.0638428)"/>
</clipPath>
<clipPath id="clip14_61_203">
<rect width="82.4897" height="43.125" fill="white" transform="translate(33.855 -0.0638428)"/>
</clipPath>
<clipPath id="clip15_61_203">
<rect width="82.4897" height="32.6595" fill="white" transform="translate(33.855 -0.0638428)"/>
</clipPath>
<clipPath id="clip16_61_203">
<rect width="82.4897" height="32.6595" fill="white" transform="translate(33.855 -0.0638428)"/>
</clipPath>
<clipPath id="clip17_61_203">
<rect width="48.4297" height="2.75534" fill="white" transform="translate(33.855 40.3059)"/>
</clipPath>
<clipPath id="clip18_61_203">
<rect width="48.4297" height="2.75534" fill="white" transform="translate(33.855 40.3059)"/>
</clipPath>
<clipPath id="clip19_61_203">
<rect width="25.4893" height="25.7395" fill="white" transform="translate(0.655518 8.62891)"/>
</clipPath>
<clipPath id="clip20_61_203">
<rect width="25.4893" height="25.7395" fill="white" transform="translate(0.655518 8.62891)"/>
</clipPath>
</defs>
</svg>
